<?xml version="1.0" standalone="no"?>
<!DOCTYPE svg PUBLIC "-//W3C//DTD SVG 1.1//EN"
  "http://www.w3.org/Graphics/SVG/1.1/DTD/svg11.dtd">
<svg width="246.46559143066406mm" height="32.299069404602044mm" viewBox="-150.73936462402344 -9.851490974426268 246.46559143066406 32.299069404602044" xmlns="http://www.w3.org/2000/svg" version="1.1">
	<title>svgOutput</title>
	<desc>made with tinkercad</desc>
<path d="M 83.438720703125 -8.266279220581053 L 83.5434341430664 -8.19200038909912 L 84.05792999267578 -7.827024936676024 L 84.18590545654297 -7.620194435119627 L 84.57050323486328 -6.9993033409118635 L 84.57064819335938 -6.99838876724243 L 84.60863494873047 -6.76260995864868 L 84.72622680664062 -6.0299806594848615 L 84.67923736572266 -5.82900047302246 L 84.50152587890625 -5.067739963531493 L 84.50112915039062 -5.067171096801757 L 84.41867065429688 -4.950315475463866 L 83.93043518066406 -4.2588157653808585 L 83.88672637939453 -4.230785369873046 L 83.67684173583984 -4.09600019454956 L 83.5519790649414 -4.015820026397704 L 83.54681396484375 -4.012803077697753 L 83.1124267578125 -3.7592730522155753 L 83.05619812011719 -3.726492166519164 L 82.40682983398438 -3.6178619861602774 L 82.402587890625 -3.617151737213134 L 82.20831298828125 -3.5846519470214835 L 82.0778579711914 -3.562928915023803 L 82.07780456542969 -3.562920331954955 L 82.01475524902344 -3.552421808242797 L 82 -3.555485486984252 L 81.91999816894531 -3.572094440460204 L 81.32718658447266 -3.6951701641082755 L 81.25604248046875 -3.709876060485839 L 81.25596618652344 -3.709892272949218 L 81.0027084350586 -3.7622432708740225 L 80.55317687988281 -4.066775321960448 L 80.510009765625 -4.09600019454956 L 80.17308044433594 -4.324135303497314 L 79.95974731445312 -4.6636691093444815 L 79.95965576171875 -4.663818836212157 L 79.95243072509766 -4.67531394958496 L 79.65361022949219 -5.152149200439452 L 79.60393524169922 -5.518892765045165 L 79.59752655029297 -5.566130638122558 L 79.59751892089844 -5.566178798675536 L 79.52212524414062 -6.121387004852293 L 79.65186309814453 -6.573000907897947 L 79.69202423095703 -6.712665081024168 L 79.79837036132812 -7.082544326782225 L 80.25580596923828 -7.657134532928465 L 80.3541488647461 -7.780651092529295 L 80.3541488647461 -7.78065252304077 L 80.44129943847656 -7.890110969543455 L 80.9591064453125 -8.19200038909912 L 81.12899780273438 -8.29104709625244 L 81.1294937133789 -8.291335105895994 L 81.35147857666016 -8.420755386352537 L 81.35287475585938 -8.421567916870115 L 81.35287475585938 -8.421568870544432 L 81.35315704345703 -8.42173385620117 L 81.36080932617188 -8.423014640808104 L 81.91999816894531 -8.524931907653807 L 82 -8.539512634277342 L 82.31666564941406 -8.597227096557615 L 82.31890869140625 -8.596734046936033 L 82.44818115234375 -8.568311691284178 L 83.26631164550781 -8.388440132141112 L 83.26632690429688 -8.38843250274658 L 83.438720703125 -8.266279220581053 M 94.50152587890625 19.93226051330566 L 94.50112915039062 19.93282890319824 L 94.41867065429688 20.04968452453613 L 94.20800018310547 20.34806442260742 L 94.1148452758789 20.479999542236325 L 93.93043518066406 20.741184234619137 L 93.88672637939453 20.76921463012695 L 93.5519790649414 20.98418045043945 L 93.54681396484375 20.987195968627926 L 93.1124267578125 21.240726470947262 L 93.05619812011719 21.27350807189941 L 92.40682983398438 21.38213729858398 L 92.402587890625 21.38284873962402 L 92.20831298828125 21.415348052978512 L 92.0778579711914 21.437070846557614 L 92.07780456542969 21.437080383300778 L 92.07245635986328 21.4379711151123 L 92.07194519042969 21.438055038452145 L 92.01475524902344 21.447578430175778 L 91.32718658447266 21.304830551147457 L 91.25604248046875 21.290124893188473 L 91.25596618652344 21.290107727050778 L 91.0027084350586 21.237756729125973 L 90.55317687988281 20.933225631713864 L 90.5511703491211 20.93186569213867 L 90.5511474609375 20.93185234069824 L 90.17308044433594 20.67586517333984 L 90.11199951171875 20.57864952087402 L 90.05001831054688 20.479999542236325 L 89.95974731445312 20.336330413818356 L 89.95965576171875 20.336181640624996 L 89.95243072509766 20.324686050415036 L 89.65361022949219 19.847850799560543 L 89.60393524169922 19.48110771179199 L 89.59752655029297 19.433870315551754 L 89.59751892089844 19.4338207244873 L 89.52212524414062 18.878612518310543 L 89.65186309814453 18.42699813842773 L 89.69202423095703 18.28733444213867 L 89.79837036132812 17.91745567321777 L 90.11199951171875 17.523504257202145 L 90.25580596923828 17.34286499023437 L 90.3541488647461 17.2193489074707 L 90.3541488647461 17.219347000122067 L 90.44129943847656 17.109888076782223 L 91.35147857666016 16.579244613647457 L 91.35287475585938 16.57843208312988 L 91.35315704345703 16.578266143798825 L 91.36080932617188 16.576984405517575 L 92.31666564941406 16.40277290344238 L 92.31890869140625 16.403264999389645 L 92.44818115234375 16.431688308715817 L 93.26631164550781 16.611558914184567 L 93.26632690429688 16.611566543579098 L 93.438720703125 16.73372077941894 L 94.05792999267578 17.17297554016113 L 94.18590545654297 17.37980461120605 L 94.20800018310547 17.415470123291012 L 94.57050323486328 18.000696182250973 L 94.57064819335938 18.001611709594723 L 94.60863494873047 18.237390518188473 L 94.72622680664062 18.970018386840817 L 94.67923736572266 19.170999526977536 L 94.50152587890625 19.93226051330566 M 37.75873947143555 -8.851490974426268 L 37.89125061035156 -8.822558403015135 L 38.708229064941406 -8.644249916076658 L 38.71482849121094 -8.642908096313475 L 38.7158317565918 -8.642704010009764 L 39.42988586425781 -8.19200038909912 L 39.46985626220703 -8.166772842407225 L 39.607662200927734 -8.079739570617674 L 39.76770782470703 -7.86362314224243 L 40 -7.549943447113035 L 40.01887512207031 -7.524453639984129 L 40.22099685668945 -7.251144409179686 L 40.22202682495117 -7.249749183654783 L 40.341835021972656 -6.769516468048094 L 40.464866638183594 -6.279164314270018 L 40.4417724609375 -6.14400005340576 L 40.40359878540039 -5.920571327209472 L 40.2995491027832 -5.315743923187255 L 40.299503326416016 -5.315492630004882 L 40.10195541381836 -5.024220943450927 L 40.095516204833984 -5.014722347259521 L 40.09550094604492 -5.014697551727294 L 40 -4.873799324035644 L 39.750946044921875 -4.506351470947265 L 39.347625732421875 -4.253229618072509 L 39.34465026855469 -4.251362323760985 L 39.097469329833984 -4.09600019454956 L 38.90298843383789 -3.9737606048583975 L 38.20716857910156 -3.8543927669525138 L 37.88410568237305 -3.7990033626556388 L 36.95479202270508 -3.9879276752471915 L 36.86399841308594 -4.0064353942871085 L 36.850040435791016 -4.009281158447265 L 36.71247863769531 -4.09600019454956 L 36.3642692565918 -4.315512180328368 L 36.36308670043945 -4.316328525543212 L 35.99421691894531 -4.571467399597167 L 35.9632682800293 -4.618697643280028 L 35.452415466308594 -5.400214195251464 L 35.45228958129883 -5.400406837463378 L 35.42167282104492 -5.555622100830077 L 35.2606315612793 -6.369616985321043 L 35.3045768737793 -6.592741966247557 L 35.45051956176758 -7.33230400085449 L 35.450584411621094 -7.3326492309570295 L 35.596439361572266 -7.550700187683104 L 35.991943359375 -8.142639160156248 L 36.06687545776367 -8.19200038909912 L 36.21070098876953 -8.286740303039549 L 36.80216979980469 -8.67592144012451 L 36.86399841308594 -8.687225341796873 L 37.020626068115234 -8.71585941314697 L 37.72077178955078 -8.84451389312744 L 37.72211456298828 -8.844760894775389 L 37.75871276855469 -8.851486206054686 L 37.75873947143555 -8.851490974426268 M 41.80216979980469 16.32407760620117 L 42.020626068115234 16.28414154052734 L 42.72077178955078 16.15548515319824 L 42.72211456298828 16.155239105224606 L 42.75871276855469 16.14851379394531 L 42.75873947143555 16.14850807189941 L 42.89125061035156 16.177440643310543 L 43.708229064941406 16.35574913024902 L 43.71482849121094 16.35709190368652 L 43.7158317565918 16.35729598999023 L 43.758140563964844 16.38400077819824 L 44.46985626220703 16.83322715759277 L 44.607662200927734 16.920261383056637 L 45 17.4500560760498 L 45.01887512207031 17.475545883178707 L 45.055999755859375 17.5257453918457 L 45.22099685668945 17.74885559082031 L 45.22202682495117 17.750249862670895 L 45.341835021972656 18.23048400878906 L 45.464866638183594 18.720836639404293 L 45.40776443481445 19.05504989624023 L 45.40776443481445 19.055057525634762 L 45.40359878540039 19.079427719116207 L 45.2995491027832 19.684255599975582 L 45.299503326416016 19.684507369995114 L 45.10195541381836 19.97577857971191 L 45.095516204833984 19.985277175903317 L 45.09550094604492 19.985301971435543 L 45.055999755859375 20.043579101562496 L 45 20.126199722290036 L 44.760196685791016 20.479999542236325 L 44.751399993896484 20.492979049682614 L 44.750946044921875 20.49364852905273 L 44.34465026855469 20.74863815307617 L 43.90298843383789 21.026239395141598 L 43.20716857910156 21.145606994628903 L 42.88410568237305 21.200996398925778 L 41.95479202270508 21.012071609497067 L 41.85038375854492 20.990789413452145 L 41.850040435791016 20.99071884155273 L 41.3642692565918 20.684488296508786 L 41.36308670043945 20.68367195129394 L 41.068626403808594 20.479999542236325 L 40.99421691894531 20.428533554077145 L 40.9632682800293 20.38130187988281 L 40.959999084472656 20.37630462646484 L 40.452415466308594 19.599786758422848 L 40.45228958129883 19.5995922088623 L 40.42167282104492 19.44437789916992 L 40.2606315612793 18.630382537841793 L 40.3045768737793 18.40725708007812 L 40.45051956176758 17.667695999145504 L 40.450584411621094 17.667350769042965 L 40.596439361572266 17.449300765991207 L 40.959999084472656 16.90516853332519 L 40.991943359375 16.857360839843746 L 41.21070098876953 16.713260650634762 L 41.71110153198242 16.38400077819824 L 41.80173873901367 16.324361801147457 L 41.80216979980469 16.32407760620117 M 23.266313552856445 -8.388440132141112 L 23.26632308959961 -8.38843250274658 L 23.438722610473633 -8.266279220581053 L 23.543432235717773 -8.19200038909912 L 24.057933807373047 -7.827024936676024 L 24.185909271240234 -7.620194435119627 L 24.57050132751465 -6.9993033409118635 L 24.570650100708008 -6.99838876724243 L 24.576000213623047 -6.965178012847899 L 24.60863494873047 -6.76260995864868 L 24.72622299194336 -6.0299806594848615 L 24.679235458374023 -5.82900047302246 L 24.576000213623047 -5.386762619018554 L 24.501527786254883 -5.067739963531493 L 24.418672561645508 -4.950315475463866 L 23.930435180664062 -4.2588157653808585 L 23.88672637939453 -4.230785369873046 L 23.676837921142578 -4.09600019454956 L 23.551982879638672 -4.015820026397704 L 23.54681396484375 -4.012803077697753 L 23.1124267578125 -3.7592730522155753 L 23.056198120117188 -3.726492166519164 L 22.40683364868164 -3.6178619861602774 L 22.402587890625 -3.617151737213134 L 22.208311080932617 -3.5846519470214835 L 22.077856063842773 -3.562928915023803 L 22.077804565429688 -3.562920331954955 L 22.07245445251465 -3.5620293617248526 L 22.071943283081055 -3.5619442462921134 L 22.01475715637207 -3.552421808242797 L 21.327186584472656 -3.6951701641082755 L 21.256044387817383 -3.709876060485839 L 21.255966186523438 -3.709892272949218 L 21.00271224975586 -3.7622432708740225 L 20.55317497253418 -4.066775321960448 L 20.510013580322266 -4.09600019454956 L 20.479999542236328 -4.11632204055786 L 20.173080444335938 -4.324135303497314 L 19.959749221801758 -4.6636691093444815 L 19.95965576171875 -4.663818836212157 L 19.95243263244629 -4.67531394958496 L 19.653610229492188 -5.152149200439452 L 19.60393714904785 -5.518892765045165 L 19.597522735595703 -5.566130638122558 L 19.597517013549805 -5.566178798675536 L 19.522127151489258 -6.121387004852293 L 19.65186309814453 -6.573000907897947 L 19.6920223236084 -6.712665081024168 L 19.79837417602539 -7.082544326782225 L 20.255807876586914 -7.657134532928465 L 20.441295623779297 -7.890110969543455 L 20.479999542236328 -7.9126758575439435 L 20.959110260009766 -8.19200038909912 L 21.35148048400879 -8.420755386352537 L 21.352874755859375 -8.421567916870115 L 21.352874755859375 -8.421568870544432 L 21.353158950805664 -8.42173385620117 L 21.360809326171875 -8.423014640808104 L 22.316665649414062 -8.597227096557615 L 22.318904876708984 -8.596734046936033 L 22.448179244995117 -8.568311691284178 L 23.266313552856445 -8.388440132141112 M 24.57050132751465 18.000696182250973 L 24.570650100708008 18.001611709594723 L 24.576000213623047 18.034822463989254 L 24.60863494873047 18.237390518188473 L 24.72622299194336 18.970018386840817 L 24.679235458374023 19.170999526977536 L 24.576000213623047 19.61323738098144 L 24.501527786254883 19.93226051330566 L 24.418672561645508 20.04968452453613 L 24.114845275878906 20.479999542236325 L 23.930435180664062 20.741184234619137 L 23.88672637939453 20.76921463012695 L 23.551982879638672 20.98418045043945 L 23.54681396484375 20.987195968627926 L 23.1124267578125 21.240726470947262 L 23.056198120117188 21.27350807189941 L 22.40683364868164 21.38213729858398 L 22.402587890625 21.38284873962402 L 22.208311080932617 21.415348052978512 L 22.077856063842773 21.437070846557614 L 22.077804565429688 21.437080383300778 L 22.07245445251465 21.4379711151123 L 22.071943283081055 21.438055038452145 L 22.01475715637207 21.447578430175778 L 21.327186584472656 21.304830551147457 L 21.256044387817383 21.290124893188473 L 21.255966186523438 21.290107727050778 L 21.00271224975586 21.237756729125973 L 20.55317497253418 20.933225631713864 L 20.55116844177246 20.93186569213867 L 20.551149368286133 20.93185234069824 L 20.479999542236328 20.883678436279293 L 20.173080444335938 20.67586517333984 L 20.050018310546875 20.479999542236325 L 19.959749221801758 20.336330413818356 L 19.95965576171875 20.336181640624996 L 19.95243263244629 20.324686050415036 L 19.653610229492188 19.847850799560543 L 19.60393714904785 19.48110771179199 L 19.597522735595703 19.433870315551754 L 19.597517013549805 19.4338207244873 L 19.522127151489258 18.878612518310543 L 19.65186309814453 18.42699813842773 L 19.6920223236084 18.28733444213867 L 19.79837417602539 17.91745567321777 L 20.255807876586914 17.34286499023437 L 20.441295623779297 17.109888076782223 L 20.479999542236328 17.08732414245605 L 21.35148048400879 16.579244613647457 L 21.352874755859375 16.57843208312988 L 21.352874755859375 16.57843208312988 L 21.353158950805664 16.578266143798825 L 21.360809326171875 16.576984405517575 L 22.316665649414062 16.40277290344238 L 22.318904876708984 16.403264999389645 L 22.448179244995117 16.431688308715817 L 23.266313552856445 16.611558914184567 L 23.26632308959961 16.611566543579098 L 23.438722610473633 16.73372077941894 L 24.057933807373047 17.17297554016113 L 24.185909271240234 17.37980461120605 L 24.57050132751465 18.000696182250973 M 70.22203063964844 -7.249749183654783 L 70.34183502197266 -6.769516468048094 L 70.4648666381836 -6.279164314270018 L 70.40776824951172 -5.944950103759765 L 70.40776062011719 -5.9449424743652335 L 70.40360260009766 -5.920571327209472 L 70.29954528808594 -5.315743923187255 L 70.29950714111328 -5.315492630004882 L 70.1019515991211 -5.024220943450927 L 70.09552001953125 -5.014722347259521 L 70.09549713134766 -5.014697551727294 L 69.75094604492188 -4.506351470947265 L 69.63200378417969 -4.431701660156249 L 69.34465026855469 -4.251362323760985 L 69.09747314453125 -4.09600019454956 L 68.90299224853516 -3.9737606048583975 L 68.20716857910156 -3.8543927669525138 L 67.88410186767578 -3.7990033626556388 L 66.95479583740234 -3.9879276752471915 L 66.85003662109375 -4.009281158447265 L 66.71247863769531 -4.09600019454956 L 66.36426544189453 -4.315512180328368 L 66.36309051513672 -4.316328525543212 L 65.99421691894531 -4.571467399597167 L 65.96326446533203 -4.618697643280028 L 65.53600311279297 -5.272346019744872 L 65.4524154663086 -5.400214195251464 L 65.4522933959961 -5.400406837463378 L 65.42166900634766 -5.555622100830077 L 65.26063537597656 -6.369616985321043 L 65.30457305908203 -6.592741966247557 L 65.45051574707031 -7.33230400085449 L 65.4505844116211 -7.3326492309570295 L 65.53600311279297 -7.460342884063719 L 65.59644317626953 -7.550700187683104 L 65.991943359375 -8.142639160156248 L 66.06687927246094 -8.19200038909912 L 66.21070098876953 -8.286740303039549 L 66.8017349243164 -8.67563724517822 L 66.80216979980469 -8.67592144012451 L 67.02062225341797 -8.71585941314697 L 67.72077178955078 -8.84451389312744 L 67.72211456298828 -8.844760894775389 L 67.75871276855469 -8.851486206054686 L 67.75874328613281 -8.851490974426268 L 67.89125061035156 -8.822558403015135 L 68.7082290649414 -8.644249916076658 L 68.71482849121094 -8.642908096313475 L 68.71582794189453 -8.642704010009764 L 69.42988586425781 -8.19200038909912 L 69.46985626220703 -8.166772842407225 L 69.607666015625 -8.079739570617674 L 69.63200378417969 -8.046875953674315 L 69.76705169677734 -7.864503860473631 L 69.76770782470703 -7.86362314224243 L 70.01887512207031 -7.524453639984129 L 70.22099304199219 -7.251144409179686 L 70.22203063964844 -7.249749183654783 M 76.80216979980469 16.32407760620117 L 77.02062225341797 16.28414154052734 L 77.72077178955078 16.15548515319824 L 77.72211456298828 16.155239105224606 L 77.75871276855469 16.14851379394531 L 77.75874328613281 16.14850807189941 L 77.89125061035156 16.177440643310543 L 78.7082290649414 16.35574913024902 L 78.71482849121094 16.35709190368652 L 78.71582794189453 16.35729598999023 L 78.75814056396484 16.38400077819824 L 79.46985626220703 16.83322715759277 L 79.607666015625 16.920261383056637 L 79.76705169677734 17.135496139526364 L 79.76770782470703 17.136377334594723 L 80.01887512207031 17.475545883178707 L 80.22099304199219 17.74885559082031 L 80.22203063964844 17.750249862670895 L 80.34183502197266 18.23048400878906 L 80.4648666381836 18.720836639404293 L 80.40776824951172 19.05504989624023 L 80.40776062011719 19.055057525634762 L 80.40360260009766 19.079427719116207 L 80.29954528808594 19.684255599975582 L 80.29950714111328 19.684507369995114 L 80.1019515991211 19.97577857971191 L 80.09552001953125 19.985277175903317 L 80.09549713134766 19.985301971435543 L 79.76020050048828 20.479999542236325 L 79.75139617919922 20.492979049682614 L 79.75094604492188 20.49364852905273 L 79.34465026855469 20.74863815307617 L 78.90299224853516 21.026239395141598 L 78.20716857910156 21.145606994628903 L 77.88410186767578 21.200996398925778 L 77.8239974975586 21.18877792358398 L 76.95479583740234 21.012071609497067 L 76.85038757324219 20.990789413452145 L 76.85003662109375 20.99071884155273 L 76.36426544189453 20.684488296508786 L 76.36309051513672 20.68367195129394 L 76.0686264038086 20.479999542236325 L 75.99421691894531 20.428533554077145 L 75.96326446533203 20.38130187988281 L 75.4524154663086 19.599786758422848 L 75.4522933959961 19.5995922088623 L 75.42166900634766 19.44437789916992 L 75.26063537597656 18.630382537841793 L 75.30457305908203 18.40725708007812 L 75.45051574707031 17.667695999145504 L 75.4505844116211 17.667350769042965 L 75.59644317626953 17.449300765991207 L 75.991943359375 16.857360839843746 L 76.21070098876953 16.713260650634762 L 76.71109771728516 16.38400077819824 L 76.8017349243164 16.324361801147457 L 76.80216979980469 16.32407760620117 M 53.438724517822266 -8.266279220581053 L 53.543434143066406 -8.19200038909912 L 54.05793380737305 -7.827024936676024 L 54.185909271240234 -7.620194435119627 L 54.57050323486328 -6.9993033409118635 L 54.570648193359375 -6.99838876724243 L 54.60863494873047 -6.76260995864868 L 54.72622299194336 -6.0299806594848615 L 54.679237365722656 -5.82900047302246 L 54.50152587890625 -5.067739963531493 L 54.50112533569336 -5.067171096801757 L 54.41867446899414 -4.950315475463866 L 53.93043518066406 -4.2588157653808585 L 53.88672637939453 -4.230785369873046 L 53.67683792114258 -4.09600019454956 L 53.55198287963867 -4.015820026397704 L 53.54681396484375 -4.012803077697753 L 53.24800109863281 -3.838400125503539 L 53.1124267578125 -3.7592730522155753 L 53.05619812011719 -3.726492166519164 L 52.40683364868164 -3.6178619861602774 L 52.402587890625 -3.617151737213134 L 52.20831298828125 -3.5846519470214835 L 52.07785415649414 -3.562928915023803 L 52.07780456542969 -3.562920331954955 L 52.072452545166016 -3.5620293617248526 L 52.07194137573242 -3.5619442462921134 L 52.01475524902344 -3.552421808242797 L 51.327186584472656 -3.6951701641082755 L 51.256046295166016 -3.709876060485839 L 51.25596618652344 -3.709892272949218 L 51.00271224975586 -3.7622432708740225 L 50.55317687988281 -4.066775321960448 L 50.510013580322266 -4.09600019454956 L 50.17308044433594 -4.324135303497314 L 49.95975112915039 -4.6636691093444815 L 49.95965576171875 -4.663818836212157 L 49.95243453979492 -4.67531394958496 L 49.65361022949219 -5.152149200439452 L 49.603939056396484 -5.518892765045165 L 49.5975227355957 -5.566130638122558 L 49.59751510620117 -5.566178798675536 L 49.52212905883789 -6.121387004852293 L 49.65186309814453 -6.573000907897947 L 49.692020416259766 -6.712665081024168 L 49.79837417602539 -7.082544326782225 L 50.25580596923828 -7.657134532928465 L 50.354148864746094 -7.780651092529295 L 50.354148864746094 -7.78065252304077 L 50.4412956237793 -7.890110969543455 L 50.959110260009766 -8.19200038909912 L 51.35148239135742 -8.420755386352537 L 51.352874755859375 -8.421567916870115 L 51.352874755859375 -8.421568870544432 L 51.35315704345703 -8.42173385620117 L 51.360809326171875 -8.423014640808104 L 52.31666564941406 -8.597227096557615 L 52.318904876708984 -8.596734046936033 L 52.448177337646484 -8.568311691284178 L 53.24800109863281 -8.392466545104979 L 53.26631164550781 -8.388440132141112 L 53.26632308959961 -8.38843250274658 L 53.438724517822266 -8.266279220581053 M 59.57050323486328 18.000696182250973 L 59.570648193359375 18.001611709594723 L 59.60863494873047 18.237390518188473 L 59.72622299194336 18.970018386840817 L 59.679237365722656 19.170999526977536 L 59.50152587890625 19.93226051330566 L 59.50112533569336 19.93282890319824 L 59.41867446899414 20.04968452453613 L 59.114845275878906 20.479999542236325 L 58.93043518066406 20.741184234619137 L 58.88672637939453 20.76921463012695 L 58.55198287963867 20.98418045043945 L 58.54681396484375 20.987195968627926 L 58.1124267578125 21.240726470947262 L 58.05619812011719 21.27350807189941 L 57.40683364868164 21.38213729858398 L 57.402587890625 21.38284873962402 L 57.34400177001953 21.39264869689941 L 57.20831298828125 21.415348052978512 L 57.07785415649414 21.437070846557614 L 57.07780456542969 21.437080383300778 L 57.072452545166016 21.4379711151123 L 57.07194137573242 21.438055038452145 L 57.01475524902344 21.447578430175778 L 56.327186584472656 21.304830551147457 L 56.256046295166016 21.290124893188473 L 56.25596618652344 21.290107727050778 L 56.00271224975586 21.237756729125973 L 55.55317687988281 20.933225631713864 L 55.551170349121094 20.93186569213867 L 55.5511474609375 20.93185234069824 L 55.17308044433594 20.67586517333984 L 55.050018310546875 20.479999542236325 L 54.95975112915039 20.336330413818356 L 54.95965576171875 20.336181640624996 L 54.95243453979492 20.324686050415036 L 54.65361022949219 19.847850799560543 L 54.603939056396484 19.48110771179199 L 54.5975227355957 19.433870315551754 L 54.59751510620117 19.4338207244873 L 54.52212905883789 18.878612518310543 L 54.650428771972656 18.431999206542965 L 54.65186309814453 18.42699813842773 L 54.692020416259766 18.28733444213867 L 54.79837417602539 17.91745567321777 L 55.25580596923828 17.34286499023437 L 55.354148864746094 17.2193489074707 L 55.354148864746094 17.219347000122067 L 55.4412956237793 17.109888076782223 L 56.35148239135742 16.579244613647457 L 56.352874755859375 16.57843208312988 L 56.35315704345703 16.578266143798825 L 56.360809326171875 16.576984405517575 L 57.31666564941406 16.40277290344238 L 57.318904876708984 16.403264999389645 L 57.34400177001953 16.40878295898437 L 57.448177337646484 16.431688308715817 L 58.26631164550781 16.611558914184567 L 58.26632308959961 16.611566543579098 L 58.438724517822266 16.73372077941894 L 59.05793380737305 17.17297554016113 L 59.185909271240234 17.37980461120605 L 59.57050323486328 18.000696182250973 M -19.777971267700195 -7.249749183654783 L -19.65816307067871 -6.769516468048094 L -19.535133361816406 -6.279164314270018 L -19.592233657836914 -5.944950103759765 L -19.592235565185547 -5.9449424743652335 L -19.596399307250977 -5.920571327209472 L -19.70045280456543 -5.315743923187255 L -19.700496673583984 -5.315492630004882 L -19.89804458618164 -5.024220943450927 L -19.904483795166016 -5.014722347259521 L -19.90450096130371 -5.014697551727294 L -20.249053955078125 -4.506351470947265 L -20.479999542236328 -4.3614110946655265 L -20.655349731445312 -4.251362323760985 L -20.902528762817383 -4.09600019454956 L -21.097009658813477 -3.9737606048583975 L -21.792829513549805 -3.8543927669525138 L -22.115896224975586 -3.7990033626556388 L -23.045207977294922 -3.9879276752471915 L -23.149959564208984 -4.009281158447265 L -23.287521362304688 -4.09600019454956 L -23.635730743408203 -4.315512180328368 L -23.636911392211914 -4.316328525543212 L -24.005783081054688 -4.571467399597167 L -24.036733627319336 -4.618697643280028 L -24.547582626342773 -5.400214195251464 L -24.54770851135254 -5.400406837463378 L -24.576000213623047 -5.543818950653075 L -24.57832908630371 -5.555622100830077 L -24.739368438720703 -6.369616985321043 L -24.695425033569336 -6.592741966247557 L -24.576000213623047 -7.19792318344116 L -24.549482345581055 -7.33230400085449 L -24.549413681030273 -7.3326492309570295 L -24.403560638427734 -7.550700187683104 L -24.008056640625 -8.142639160156248 L -23.933122634887695 -8.19200038909912 L -23.7893009185791 -8.286740303039549 L -23.19826316833496 -8.67563724517822 L -23.197832107543945 -8.67592144012451 L -22.979373931884766 -8.71585941314697 L -22.27923011779785 -8.84451389312744 L -22.27788734436035 -8.844760894775389 L -22.241289138793945 -8.851486206054686 L -22.241260528564453 -8.851490974426268 L -22.108749389648438 -8.822558403015135 L -21.291772842407227 -8.644249916076658 L -21.285171508789062 -8.642908096313475 L -21.284168243408203 -8.642704010009764 L -20.570112228393555 -8.19200038909912 L -20.53014373779297 -8.166772842407225 L -20.479999542236328 -8.135103225708006 L -20.392335891723633 -8.079739570617674 L -20.232946395874023 -7.864503860473631 L -20.2322940826416 -7.86362314224243 L -19.981122970581055 -7.524453639984129 L -19.779003143310547 -7.251144409179686 L -19.777971267700195 -7.249749183654783 M -19.777971267700195 17.750249862670895 L -19.65816307067871 18.23048400878906 L -19.535133361816406 18.720836639404293 L -19.592233657836914 19.05504989624023 L -19.592235565185547 19.055057525634762 L -19.596399307250977 19.079427719116207 L -19.70045280456543 19.684255599975582 L -19.700496673583984 19.684507369995114 L -19.89804458618164 19.97577857971191 L -19.904483795166016 19.985277175903317 L -19.90450096130371 19.985301971435543 L -20.239803314208984 20.479999542236325 L -20.248600006103516 20.492979049682614 L -20.249053955078125 20.49364852905273 L -20.479999542236328 20.638589859008786 L -20.655349731445312 20.74863815307617 L -21.097009658813477 21.026239395141598 L -21.792829513549805 21.145606994628903 L -22.115896224975586 21.200996398925778 L -23.045207977294922 21.012071609497067 L -23.149616241455078 20.990789413452145 L -23.149959564208984 20.99071884155273 L -23.635730743408203 20.684488296508786 L -23.636911392211914 20.68367195129394 L -23.931373596191406 20.479999542236325 L -24.005783081054688 20.428533554077145 L -24.036733627319336 20.38130187988281 L -24.547582626342773 19.599786758422848 L -24.54770851135254 19.5995922088623 L -24.576000213623047 19.456180572509762 L -24.57832908630371 19.44437789916992 L -24.739368438720703 18.630382537841793 L -24.695425033569336 18.40725708007812 L -24.576000213623047 17.802076339721676 L -24.549482345581055 17.667695999145504 L -24.549413681030273 17.667350769042965 L -24.403560638427734 17.449300765991207 L -24.008056640625 16.857360839843746 L -23.7893009185791 16.713260650634762 L -23.288898468017578 16.38400077819824 L -23.19826316833496 16.324361801147457 L -23.197832107543945 16.32407760620117 L -22.979373931884766 16.28414154052734 L -22.27923011779785 16.15548515319824 L -22.27788734436035 16.155239105224606 L -22.241289138793945 16.14851379394531 L -22.241260528564453 16.14850807189941 L -22.108749389648438 16.177440643310543 L -21.291772842407227 16.35574913024902 L -21.285171508789062 16.35709190368652 L -21.284168243408203 16.35729598999023 L -21.241859436035156 16.38400077819824 L -20.53014373779297 16.83322715759277 L -20.479999542236328 16.86489677429199 L -20.392335891723633 16.920261383056637 L -20.232946395874023 17.135496139526364 L -20.2322940826416 17.136377334594723 L -19.981122970581055 17.475545883178707 L -19.779003143310547 17.74885559082031 L -19.777971267700195 17.750249862670895 M -36.561275482177734 -8.266279220581053 L -36.456565856933594 -8.19200038909912 L -35.94206619262695 -7.827024936676024 L -35.814090728759766 -7.620194435119627 L -35.42949676513672 -6.9993033409118635 L -35.429351806640625 -6.99838876724243 L -35.39136505126953 -6.76260995864868 L -35.27377700805664 -6.0299806594848615 L -35.320762634277344 -5.82900047302246 L -35.49847412109375 -5.067739963531493 L -35.49887466430664 -5.067171096801757 L -35.58132553100586 -4.950315475463866 L -36.06956481933594 -4.2588157653808585 L -36.11327362060547 -4.230785369873046 L -36.32316207885742 -4.09600019454956 L -36.44801712036133 -4.015820026397704 L -36.45318603515625 -4.012803077697753 L -36.86399841308594 -3.77303123474121 L -36.8875732421875 -3.7592730522155753 L -36.94380187988281 -3.726492166519164 L -37.59316635131836 -3.6178619861602774 L -37.597412109375 -3.617151737213134 L -37.79168701171875 -3.5846519470214835 L -37.92214584350586 -3.562928915023803 L -37.92219543457031 -3.562920331954955 L -37.927547454833984 -3.5620293617248526 L -37.92805862426758 -3.5619442462921134 L -37.98524475097656 -3.552421808242797 L -38.672813415527344 -3.6951701641082755 L -38.743953704833984 -3.709876060485839 L -38.74403381347656 -3.709892272949218 L -38.99728775024414 -3.7622432708740225 L -39.44682312011719 -4.066775321960448 L -39.489986419677734 -4.09600019454956 L -39.82691955566406 -4.324135303497314 L -40.04024887084961 -4.6636691093444815 L -40.04034423828125 -4.663818836212157 L -40.04756546020508 -4.67531394958496 L -40.34638977050781 -5.152149200439452 L -40.396060943603516 -5.518892765045165 L -40.4024772644043 -5.566130638122558 L -40.40248489379883 -5.566178798675536 L -40.47787094116211 -6.121387004852293 L -40.34813690185547 -6.573000907897947 L -40.307979583740234 -6.712665081024168 L -40.20162582397461 -7.082544326782225 L -39.74419403076172 -7.657134532928465 L -39.645851135253906 -7.780651092529295 L -39.645851135253906 -7.78065252304077 L -39.5587043762207 -7.890110969543455 L -39.040889739990234 -8.19200038909912 L -38.87099838256836 -8.29104709625244 L -38.870506286621094 -8.291335105895994 L -38.64851760864258 -8.420755386352537 L -38.647125244140625 -8.421567916870115 L -38.647125244140625 -8.421568870544432 L -38.64684295654297 -8.42173385620117 L -38.639190673828125 -8.423014640808104 L -37.68333435058594 -8.597227096557615 L -37.681095123291016 -8.596734046936033 L -37.551822662353516 -8.568311691284178 L -36.86399841308594 -8.417090415954588 L -36.73368835449219 -8.388440132141112 L -36.73367691040039 -8.38843250274658 L -36.561275482177734 -8.266279220581053 M -35.42949676513672 18.000696182250973 L -35.429351806640625 18.001611709594723 L -35.39136505126953 18.237390518188473 L -35.27377700805664 18.970018386840817 L -35.320762634277344 19.170999526977536 L -35.49847412109375 19.93226051330566 L -35.49887466430664 19.93282890319824 L -35.58132553100586 20.04968452453613 L -35.885154724121094 20.479999542236325 L -36.06956481933594 20.741184234619137 L -36.11327362060547 20.76921463012695 L -36.44801712036133 20.98418045043945 L -36.45318603515625 20.987195968627926 L -36.86399841308594 21.226968765258786 L -36.8875732421875 21.240726470947262 L -36.94380187988281 21.27350807189941 L -37.59316635131836 21.38213729858398 L -37.597412109375 21.38284873962402 L -37.79168701171875 21.415348052978512 L -37.92214584350586 21.437070846557614 L -37.92219543457031 21.437080383300778 L -37.927547454833984 21.4379711151123 L -37.92805862426758 21.438055038452145 L -37.98524475097656 21.447578430175778 L -38.672813415527344 21.304830551147457 L -38.743953704833984 21.290124893188473 L -38.74403381347656 21.290107727050778 L -38.99728775024414 21.237756729125973 L -39.44682312011719 20.933225631713864 L -39.448829650878906 20.93186569213867 L -39.4488525390625 20.93185234069824 L -39.82691955566406 20.67586517333984 L -39.949981689453125 20.479999542236325 L -40.04024887084961 20.336330413818356 L -40.04034423828125 20.336181640624996 L -40.04756546020508 20.324686050415036 L -40.34638977050781 19.847850799560543 L -40.396060943603516 19.48110771179199 L -40.4024772644043 19.433870315551754 L -40.40248489379883 19.4338207244873 L -40.47787094116211 18.878612518310543 L -40.349571228027344 18.431999206542965 L -40.34813690185547 18.42699813842773 L -40.307979583740234 18.28733444213867 L -40.20162582397461 17.91745567321777 L -39.74419403076172 17.34286499023437 L -39.645851135253906 17.2193489074707 L -39.645851135253906 17.219347000122067 L -39.5587043762207 17.109888076782223 L -38.64851760864258 16.579244613647457 L -38.647125244140625 16.57843208312988 L -38.64684295654297 16.578266143798825 L -38.639190673828125 16.576984405517575 L -37.68333435058594 16.40277290344238 L -37.681095123291016 16.403264999389645 L -37.551822662353516 16.431688308715817 L -36.86399841308594 16.58290863037109 L -36.73368835449219 16.611558914184567 L -36.73367691040039 16.611566543579098 L -36.561275482177734 16.73372077941894 L -35.94206619262695 17.17297554016113 L -35.814090728759766 17.37980461120605 L -35.42949676513672 18.000696182250973 M 10.222027778625488 -7.249749183654783 L 10.341836929321289 -6.769516468048094 L 10.464865684509277 -6.279164314270018 L 10.40776538848877 -5.944950103759765 L 10.407764434814453 -5.9449424743652335 L 10.403600692749023 -5.920571327209472 L 10.29954719543457 -5.315743923187255 L 10.299504280090332 -5.315492630004882 L 10.101954460144043 -5.024220943450927 L 10.0955171585083 -5.014722347259521 L 10.095499992370605 -5.014697551727294 L 9.750946044921875 -4.506351470947265 L 9.347625732421875 -4.253229618072509 L 9.344650268554688 -4.251362323760985 L 9.097471237182617 -4.09600019454956 L 8.902989387512207 -3.9737606048583975 L 8.207169532775879 -3.8543927669525138 L 8.192000389099121 -3.851792097091674 L 7.884103775024414 -3.7990033626556388 L 6.954792022705078 -3.9879276752471915 L 6.850039482116699 -4.009281158447265 L 6.7124786376953125 -4.09600019454956 L 6.364268779754639 -4.315512180328368 L 6.363088607788086 -4.316328525543212 L 5.994216442108154 -4.571467399597167 L 5.963266372680664 -4.618697643280028 L 5.452417373657227 -5.400214195251464 L 5.452291011810303 -5.400406837463378 L 5.421671390533447 -5.555622100830077 L 5.260632038116455 -6.369616985321043 L 5.3045759201049805 -6.592741966247557 L 5.4505181312561035 -7.33230400085449 L 5.450586318969727 -7.3326492309570295 L 5.596439361572266 -7.550700187683104 L 5.991943359375 -8.142639160156248 L 6.066876411437988 -8.19200038909912 L 6.210700035095215 -8.286740303039549 L 6.801736831665039 -8.67563724517822 L 6.802168369293213 -8.67592144012451 L 7.020625591278076 -8.71585941314697 L 7.722112655639648 -8.844760894775389 L 7.758710861206055 -8.851486206054686 L 7.758739948272705 -8.851490974426268 L 7.891249656677246 -8.822558403015135 L 8.192000389099121 -8.756918907165526 L 8.70822811126709 -8.644249916076658 L 8.714828491210938 -8.642908096313475 L 8.715831756591797 -8.642704010009764 L 9.429887771606445 -8.19200038909912 L 9.469856262207031 -8.166772842407225 L 9.60766315460205 -8.079739570617674 L 9.767054557800293 -7.864503860473631 L 9.767706871032715 -7.86362314224243 L 10.018877029418945 -7.524453639984129 L 10.220996856689453 -7.251144409179686 L 10.222027778625488 -7.249749183654783 M 10.222027778625488 17.750249862670895 L 10.341836929321289 18.23048400878906 L 10.464865684509277 18.720836639404293 L 10.40776538848877 19.05504989624023 L 10.407764434814453 19.055057525634762 L 10.403600692749023 19.079427719116207 L 10.29954719543457 19.684255599975582 L 10.299504280090332 19.684507369995114 L 10.101954460144043 19.97577857971191 L 10.0955171585083 19.985277175903317 L 10.095499992370605 19.985301971435543 L 9.760196685791016 20.479999542236325 L 9.751399993896484 20.492979049682614 L 9.750946044921875 20.49364852905273 L 9.344650268554688 20.74863815307617 L 8.902989387512207 21.026239395141598 L 8.207169532775879 21.145606994628903 L 8.192000389099121 21.14820861816406 L 7.884103775024414 21.200996398925778 L 6.954792022705078 21.012071609497067 L 6.85038423538208 20.990789413452145 L 6.850039482116699 20.99071884155273 L 6.364268779754639 20.684488296508786 L 6.363088607788086 20.68367195129394 L 6.068626403808594 20.479999542236325 L 5.994216442108154 20.428533554077145 L 5.963266372680664 20.38130187988281 L 5.452417373657227 19.599786758422848 L 5.452291011810303 19.5995922088623 L 5.421671390533447 19.44437789916992 L 5.260632038116455 18.630382537841793 L 5.3045759201049805 18.40725708007812 L 5.4505181312561035 17.667695999145504 L 5.450586318969727 17.667350769042965 L 5.596439361572266 17.449300765991207 L 5.991943359375 16.857360839843746 L 6.210700035095215 16.713260650634762 L 6.711101055145264 16.38400077819824 L 6.801736831665039 16.324361801147457 L 6.802168369293213 16.32407760620117 L 7.020625591278076 16.28414154052734 L 7.722112655639648 16.155239105224606 L 7.758710861206055 16.14851379394531 L 7.758739948272705 16.14850807189941 L 7.891249656677246 16.177440643310543 L 8.192000389099121 16.243082046508786 L 8.70822811126709 16.35574913024902 L 8.714828491210938 16.35709190368652 L 8.715831756591797 16.35729598999023 L 8.758139610290527 16.38400077819824 L 9.469856262207031 16.83322715759277 L 9.60766315460205 16.920261383056637 L 9.767054557800293 17.135496139526364 L 9.767706871032715 17.136377334594723 L 10.018877029418945 17.475545883178707 L 10.220996856689453 17.74885559082031 L 10.222027778625488 17.750249862670895 M -6.561277389526367 -8.266279220581053 L -6.456567287445068 -8.19200038909912 L -5.9420671463012695 -7.827024936676024 L -5.814091205596924 -7.620194435119627 L -5.429498195648193 -6.9993033409118635 L -5.429350852966309 -6.99838876724243 L -5.391364097595215 -6.76260995864868 L -5.273776531219482 -6.0299806594848615 L -5.320764064788818 -5.82900047302246 L -5.498472690582275 -5.067739963531493 L -5.498873710632324 -5.067171096801757 L -5.581326961517334 -4.950315475463866 L -6.0695648193359375 -4.2588157653808585 L -6.113274097442627 -4.230785369873046 L -6.3231611251831055 -4.09600019454956 L -6.448017597198486 -4.015820026397704 L -6.45318603515625 -4.012803077697753 L -6.887572765350342 -3.7592730522155753 L -6.9438018798828125 -3.726492166519164 L -7.593166828155518 -3.6178619861602774 L -7.597412586212158 -3.617151737213134 L -7.791688442230225 -3.5846519470214835 L -7.922144412994385 -3.562928915023803 L -7.922195911407471 -3.562920331954955 L -7.985243320465088 -3.552421808242797 L -8.192000389099121 -3.5953471660614005 L -8.67281436920166 -3.6951701641082755 L -8.743955612182617 -3.709876060485839 L -8.744033813476562 -3.709892272949218 L -8.99728775024414 -3.7622432708740225 L -9.44682502746582 -4.066775321960448 L -9.489986419677734 -4.09600019454956 L -9.826918601989746 -4.324135303497314 L -10.040250778198242 -4.6636691093444815 L -10.04034423828125 -4.663818836212157 L -10.047567367553711 -4.67531394958496 L -10.346389770507812 -5.152149200439452 L -10.396061897277832 -5.518892765045165 L -10.40247631072998 -5.566130638122558 L -10.402482986450195 -5.566178798675536 L -10.477872848510742 -6.121387004852293 L -10.348135948181152 -6.573000907897947 L -10.307978630065918 -6.712665081024168 L -10.201626777648926 -7.082544326782225 L -9.744192123413086 -7.657134532928465 L -9.645853042602539 -7.780651092529295 L -9.645851135253906 -7.78065252304077 L -9.558704376220703 -7.890110969543455 L -9.04089069366455 -8.19200038909912 L -8.871000289916992 -8.29104709625244 L -8.870506286621094 -8.291335105895994 L -8.648519515991211 -8.420755386352537 L -8.647125244140625 -8.421567916870115 L -8.647125244140625 -8.421568870544432 L -8.646842002868652 -8.42173385620117 L -8.639191627502441 -8.423014640808104 L -8.192000389099121 -8.504518508911131 L -7.683335304260254 -8.597227096557615 L -7.681095123291016 -8.596734046936033 L -7.551821231842041 -8.568311691284178 L -6.733687400817871 -8.388440132141112 L -6.733675956726074 -8.38843250274658 L -6.561277389526367 -8.266279220581053 M -5.429498195648193 18.000696182250973 L -5.429350852966309 18.001611709594723 L -5.391364097595215 18.237390518188473 L -5.273776531219482 18.970018386840817 L -5.320764064788818 19.170999526977536 L -5.498472690582275 19.93226051330566 L -5.498873710632324 19.93282890319824 L -5.581326961517334 20.04968452453613 L -5.885153770446777 20.479999542236325 L -6.0695648193359375 20.741184234619137 L -6.113274097442627 20.76921463012695 L -6.448017597198486 20.98418045043945 L -6.45318603515625 20.987195968627926 L -6.887572765350342 21.240726470947262 L -6.9438018798828125 21.27350807189941 L -7.593166828155518 21.38213729858398 L -7.597412586212158 21.38284873962402 L -7.791688442230225 21.415348052978512 L -7.922144412994385 21.437070846557614 L -7.922195911407471 21.437080383300778 L -7.985243320465088 21.447578430175778 L -8.192000389099121 21.404653549194332 L -8.67281436920166 21.304830551147457 L -8.743955612182617 21.290124893188473 L -8.744033813476562 21.290107727050778 L -8.99728775024414 21.237756729125973 L -9.44682502746582 20.933225631713864 L -9.448831558227539 20.93186569213867 L -9.448850631713867 20.93185234069824 L -9.826918601989746 20.67586517333984 L -9.949982643127441 20.479999542236325 L -10.040250778198242 20.336330413818356 L -10.04034423828125 20.336181640624996 L -10.047567367553711 20.324686050415036 L -10.346389770507812 19.847850799560543 L -10.396061897277832 19.48110771179199 L -10.40247631072998 19.433870315551754 L -10.402482986450195 19.4338207244873 L -10.477872848510742 18.878612518310543 L -10.348135948181152 18.42699813842773 L -10.307978630065918 18.28733444213867 L -10.201626777648926 17.91745567321777 L -9.744192123413086 17.34286499023437 L -9.645853042602539 17.2193489074707 L -9.645851135253906 17.219347000122067 L -9.558704376220703 17.109888076782223 L -8.648519515991211 16.579244613647457 L -8.647125244140625 16.57843208312988 L -8.647125244140625 16.57843208312988 L -8.646842002868652 16.578266143798825 L -8.639191627502441 16.576984405517575 L -8.192000389099121 16.495481491088864 L -7.683335304260254 16.40277290344238 L -7.681095123291016 16.403264999389645 L -7.551821231842041 16.431688308715817 L -6.733687400817871 16.611558914184567 L -6.733675956726074 16.611566543579098 L -6.561277389526367 16.73372077941894 L -5.9420671463012695 17.17297554016113 L -5.814091205596924 17.37980461120605 L -5.429498195648193 18.000696182250973 M -130.42950439453125 18.000696182250973 L -130.42935180664062 18.001611709594723 L -130.391357421875 18.237390518188473 L -130.27377319335938 18.970018386840817 L -130.32077026367188 19.170999526977536 L -130.49847412109375 19.93226051330566 L -130.49887084960938 19.93282890319824 L -130.58132934570312 20.04968452453613 L -131.06956481933594 20.741184234619137 L -131.07200622558594 20.74274635314941 L -131.11328125 20.76921463012695 L -131.44801330566406 20.98418045043945 L -131.45318603515625 20.987195968627926 L -131.8875732421875 21.240726470947262 L -131.9438018798828 21.27350807189941 L -132.79168701171875 21.415348052978512 L -132.92214965820312 21.437070846557614 L -132.9221954345703 21.437080383300778 L -132.98524475097656 21.447578430175778 L -133.67282104492188 21.304830551147457 L -133.74395751953125 21.290124893188473 L -133.74403381347656 21.290107727050778 L -133.99728393554688 21.237756729125973 L -134.4468231201172 20.933225631713864 L -134.44883728027344 20.93186569213867 L -134.4488525390625 20.93185234069824 L -134.82691955566406 20.67586517333984 L -134.94998168945312 20.479999542236325 L -135.04025268554688 20.336330413818356 L -135.04034423828125 20.336181640624996 L -135.0475616455078 20.324686050415036 L -135.16799926757812 20.13250923156738 L -135.3463897705078 19.847850799560543 L -135.39605712890625 19.48110771179199 L -135.40248107910156 19.433870315551754 L -135.40248107910156 19.4338207244873 L -135.47787475585938 18.878612518310543 L -135.34812927246094 18.42699813842773 L -135.20162963867188 17.91745567321777 L -135.16799926757812 17.875217437744137 L -134.7441864013672 17.34286499023437 L -134.64585876464844 17.2193489074707 L -134.64585876464844 17.219347000122067 L -134.55870056152344 17.109888076782223 L -133.6485137939453 16.579244613647457 L -133.64712524414062 16.57843208312988 L -133.64683532714844 16.578266143798825 L -133.63919067382812 16.576984405517575 L -132.68333435058594 16.40277290344238 L -132.68109130859375 16.403264999389645 L -132.55181884765625 16.431688308715817 L -131.7336883544922 16.611558914184567 L -131.73367309570312 16.611566543579098 L -131.561279296875 16.73372077941894 L -131.07200622558594 17.080802917480465 L -130.9420623779297 17.17297554016113 L -130.8140869140625 17.37980461120605 L -130.42950439453125 18.000696182250973 M -147.2412567138672 16.14850807189941 L -147.10874938964844 16.177440643310543 L -146.29177856445312 16.35574913024902 L -146.28517150878906 16.35709190368652 L -146.28416442871094 16.35729598999023 L -146.2418670654297 16.38400077819824 L -145.5301513671875 16.83322715759277 L -145.392333984375 16.920261383056637 L -145.23294067382812 17.135496139526364 L -145.2322998046875 17.136377334594723 L -144.9811248779297 17.475545883178707 L -144.7790069580078 17.74885559082031 L -144.77796936035156 17.750249862670895 L -144.6581573486328 18.23048400878906 L -144.53514099121094 18.720836639404293 L -144.5922393798828 19.05504989624023 L -144.5922393798828 19.055057525634762 L -144.59640502929688 19.079427719116207 L -144.70045471191406 19.684255599975582 L -144.70050048828125 19.684507369995114 L -144.89804077148438 19.97577857971191 L -144.90447998046875 19.985277175903317 L -144.9044952392578 19.985301971435543 L -145.23980712890625 20.479999542236325 L -145.24859619140625 20.492979049682614 L -145.24905395507812 20.49364852905273 L -145.6553497314453 20.74863815307617 L -146.09701538085938 21.026239395141598 L -146.79283142089844 21.145606994628903 L -147.1158905029297 21.200996398925778 L -147.45599365234375 21.131855010986325 L -148.0452117919922 21.012071609497067 L -148.1496124267578 20.990789413452145 L -148.14996337890625 20.99071884155273 L -148.63572692871094 20.684488296508786 L -148.6369171142578 20.68367195129394 L -148.93136596679688 20.479999542236325 L -149.0057830810547 20.428533554077145 L -149.03672790527344 20.38130187988281 L -149.54757690429688 19.599786758422848 L -149.54771423339844 19.5995922088623 L -149.5783233642578 19.44437789916992 L -149.73936462402344 18.630382537841793 L -149.69541931152344 18.40725708007812 L -149.5494842529297 17.667695999145504 L -149.54940795898438 17.667350769042965 L -149.403564453125 17.449300765991207 L -149.008056640625 16.857360839843746 L -148.789306640625 16.713260650634762 L -148.2888946533203 16.38400077819824 L -148.19825744628906 16.324361801147457 L -148.1978302001953 16.32407760620117 L -147.9793701171875 16.28414154052734 L -147.45599365234375 16.187967300415036 L -147.27923583984375 16.15548515319824 L -147.27789306640625 16.155239105224606 L -147.2412872314453 16.14851379394531 L -147.2412567138672 16.14850807189941 M -81.28417205810547 16.35729598999023 L -81.24185943603516 16.38400077819824 L -81 16.536659240722653 L -80.53014373779297 16.83322715759277 L -80.392333984375 16.920261383056637 L -80.23294830322266 17.135496139526364 L -80.23229217529297 17.136377334594723 L -79.98112487792969 17.475545883178707 L -79.77900695800781 17.74885559082031 L -79.77796936035156 17.750249862670895 L -79.65816497802734 18.23048400878906 L -79.5351333618164 18.720836639404293 L -79.59223175048828 19.05504989624023 L -79.59223937988281 19.055057525634762 L -79.59639739990234 19.079427719116207 L -79.70045471191406 19.684255599975582 L -79.70049285888672 19.684507369995114 L -79.8980484008789 19.97577857971191 L -79.90447998046875 19.985277175903317 L -79.90450286865234 19.985301971435543 L -80.23979949951172 20.479999542236325 L -80.24860382080078 20.492979049682614 L -80.24905395507812 20.49364852905273 L -80.65534973144531 20.74863815307617 L -81 20.965265274047848 L -81.09700775146484 21.026239395141598 L -81.79283142089844 21.145606994628903 L -81.91999816894531 21.167409896850582 L -82.11589813232422 21.200996398925778 L -83.04520416259766 21.012071609497067 L -83.14961242675781 20.990789413452145 L -83.14996337890625 20.99071884155273 L -83.63573455810547 20.684488296508786 L -83.63690948486328 20.68367195129394 L -83.9313735961914 20.479999542236325 L -84.00578308105469 20.428533554077145 L -84.03673553466797 20.38130187988281 L -84.5475845336914 19.599786758422848 L -84.5477066040039 19.5995922088623 L -84.57833099365234 19.44437789916992 L -84.73936462402344 18.630382537841793 L -84.69542694091797 18.40725708007812 L -84.54948425292969 17.667695999145504 L -84.5494155883789 17.667350769042965 L -84.40355682373047 17.449300765991207 L -84.008056640625 16.857360839843746 L -83.78929901123047 16.713260650634762 L -83.28890228271484 16.38400077819824 L -83.1982650756836 16.324361801147457 L -83.19783020019531 16.32407760620117 L -82.97937774658203 16.28414154052734 L -82.27788543701172 16.155239105224606 L -82.24128723144531 16.14851379394531 L -82.24125671386719 16.14850807189941 L -82.10874938964844 16.177440643310543 L -81.91999816894531 16.21863746643066 L -81.2917709350586 16.35574913024902 L -81.28517150878906 16.35709190368652 L -81.28417205810547 16.35729598999023 M -95.42949676513672 18.000696182250973 L -95.42935180664062 18.001611709594723 L -95.39136505126953 18.237390518188473 L -95.27377319335938 18.970018386840817 L -95.32076263427734 19.170999526977536 L -95.49847412109375 19.93226051330566 L -95.49887084960938 19.93282890319824 L -95.58132934570312 20.04968452453613 L -95.8851547241211 20.479999542236325 L -96.06956481933594 20.741184234619137 L -96.11327362060547 20.76921463012695 L -96.4480209350586 20.98418045043945 L -96.45318603515625 20.987195968627926 L -96.8875732421875 21.240726470947262 L -96.94380187988281 21.27350807189941 L -97.59317016601562 21.38213729858398 L -97.597412109375 21.38284873962402 L -97.79168701171875 21.415348052978512 L -97.9221420288086 21.437070846557614 L -97.92219543457031 21.437080383300778 L -97.98524475097656 21.447578430175778 L -98.30400085449219 21.381401062011715 L -98.67281341552734 21.304830551147457 L -98.74395751953125 21.290124893188473 L -98.74403381347656 21.290107727050778 L -98.9972915649414 21.237756729125973 L -99.44682312011719 20.933225631713864 L -99.4488296508789 20.93186569213867 L -99.4488525390625 20.93185234069824 L -99.82691955566406 20.67586517333984 L -99.94998168945312 20.479999542236325 L -100.04025268554688 20.336330413818356 L -100.04034423828125 20.336181640624996 L -100.04756927490234 20.324686050415036 L -100.34638977050781 19.847850799560543 L -100.39606475830078 19.48110771179199 L -100.40247344970703 19.433870315551754 L -100.40248107910156 19.4338207244873 L -100.47787475585938 18.878612518310543 L -100.34813690185547 18.42699813842773 L -100.30797576904297 18.28733444213867 L -100.20162963867188 17.91745567321777 L -99.74419403076172 17.34286499023437 L -99.6458511352539 17.2193489074707 L -99.6458511352539 17.219347000122067 L -99.55870056152344 17.109888076782223 L -98.64852142333984 16.579244613647457 L -98.64712524414062 16.57843208312988 L -98.64684295654297 16.578266143798825 L -98.63919067382812 16.576984405517575 L -98.30400085449219 16.515893936157223 L -97.68333435058594 16.40277290344238 L -97.68109130859375 16.403264999389645 L -97.55181884765625 16.431688308715817 L -96.73368835449219 16.611558914184567 L -96.73367309570312 16.611566543579098 L -96.561279296875 16.73372077941894 L -95.94207000732422 17.17297554016113 L -95.81409454345703 17.37980461120605 L -95.42949676513672 18.000696182250973 M -109.77796936035156 17.750249862670895 L -109.65816497802734 18.23048400878906 L -109.5351333618164 18.720836639404293 L -109.59223175048828 19.05504989624023 L -109.59223937988281 19.055057525634762 L -109.59639739990234 19.079427719116207 L -109.70045471191406 19.684255599975582 L -109.70049285888672 19.684507369995114 L -109.8980484008789 19.97577857971191 L -109.90447998046875 19.985277175903317 L -109.90450286865234 19.985301971435543 L -110.23979949951172 20.479999542236325 L -110.24860382080078 20.492979049682614 L -110.24905395507812 20.49364852905273 L -110.59200286865234 20.70887947082519 L -110.65534973144531 20.74863815307617 L -111.09700775146484 21.026239395141598 L -111.79283142089844 21.145606994628903 L -112.11589813232422 21.200996398925778 L -113.04520416259766 21.012071609497067 L -113.14961242675781 20.990789413452145 L -113.14996337890625 20.99071884155273 L -113.63573455810547 20.684488296508786 L -113.63690948486328 20.68367195129394 L -113.9313735961914 20.479999542236325 L -114.00578308105469 20.428533554077145 L -114.03673553466797 20.38130187988281 L -114.5475845336914 19.599786758422848 L -114.5477066040039 19.5995922088623 L -114.57833099365234 19.44437789916992 L -114.68800354003906 18.890027999877926 L -114.73936462402344 18.630382537841793 L -114.69542694091797 18.40725708007812 L -114.68800354003906 18.369634628295895 L -114.54948425292969 17.667695999145504 L -114.5494155883789 17.667350769042965 L -114.40355682373047 17.449300765991207 L -114.008056640625 16.857360839843746 L -113.78929901123047 16.713260650634762 L -113.28890228271484 16.38400077819824 L -113.1982650756836 16.324361801147457 L -113.19783020019531 16.32407760620117 L -112.97937774658203 16.28414154052734 L -112.27922821044922 16.15548515319824 L -112.27788543701172 16.155239105224606 L -112.24128723144531 16.14851379394531 L -112.24125671386719 16.14850807189941 L -112.10874938964844 16.177440643310543 L -111.2917709350586 16.35574913024902 L -111.28517150878906 16.35709190368652 L -111.28417205810547 16.35729598999023 L -111.24185943603516 16.38400077819824 L -110.59200286865234 16.79418563842773 L -110.53014373779297 16.83322715759277 L -110.392333984375 16.920261383056637 L -110.23294830322266 17.135496139526364 L -110.23229217529297 17.136377334594723 L -109.98112487792969 17.475545883178707 L -109.77900695800781 17.74885559082031 L -109.77796936035156 17.750249862670895 M -81.28417205810547 -8.642704010009764 L -81 -8.463340759277342 L -80.57011413574219 -8.19200038909912 L -80.53014373779297 -8.166772842407225 L -80.392333984375 -8.079739570617674 L -80.23294830322266 -7.864503860473631 L -80.23229217529297 -7.86362314224243 L -79.98112487792969 -7.524453639984129 L -79.77900695800781 -7.251144409179686 L -79.77796936035156 -7.249749183654783 L -79.65816497802734 -6.769516468048094 L -79.5351333618164 -6.279164314270018 L -79.59223175048828 -5.944950103759765 L -79.59223937988281 -5.9449424743652335 L -79.59639739990234 -5.920571327209472 L -79.70045471191406 -5.315743923187255 L -79.70049285888672 -5.315492630004882 L -79.8980484008789 -5.024220943450927 L -79.90447998046875 -5.014722347259521 L -79.90450286865234 -5.014697551727294 L -80.24905395507812 -4.506351470947265 L -80.65237426757812 -4.253229618072509 L -80.65534973144531 -4.251362323760985 L -80.90252685546875 -4.09600019454956 L -81 -4.034735679626464 L -81.09700775146484 -3.9737606048583975 L -81.79283142089844 -3.8543927669525138 L -81.91999816894531 -3.832589626312255 L -82.11589813232422 -3.7990033626556388 L -83.04520416259766 -3.9879276752471915 L -83.14996337890625 -4.009281158447265 L -83.28752136230469 -4.09600019454956 L -83.63573455810547 -4.315512180328368 L -83.63690948486328 -4.316328525543212 L -84.00578308105469 -4.571467399597167 L -84.03673553466797 -4.618697643280028 L -84.5475845336914 -5.400214195251464 L -84.5477066040039 -5.400406837463378 L -84.57833099365234 -5.555622100830077 L -84.73936462402344 -6.369616985321043 L -84.69542694091797 -6.592741966247557 L -84.54948425292969 -7.33230400085449 L -84.5494155883789 -7.3326492309570295 L -84.40355682373047 -7.550700187683104 L -84.008056640625 -8.142639160156248 L -83.93312072753906 -8.19200038909912 L -83.78929901123047 -8.286740303039549 L -83.1982650756836 -8.67563724517822 L -83.19783020019531 -8.67592144012451 L -82.97937774658203 -8.71585941314697 L -82.27788543701172 -8.844760894775389 L -82.24128723144531 -8.851486206054686 L -82.24125671386719 -8.851490974426268 L -82.10874938964844 -8.822558403015135 L -81.91999816894531 -8.78136348724365 L -81.2917709350586 -8.644249916076658 L -81.28517150878906 -8.642908096313475 L -81.28417205810547 -8.642704010009764 M -96.561279296875 -8.266279220581053 L -96.4565658569336 -8.19200038909912 L -95.94207000732422 -7.827024936676024 L -95.81409454345703 -7.620194435119627 L -95.42949676513672 -6.9993033409118635 L -95.42935180664062 -6.99838876724243 L -95.39136505126953 -6.76260995864868 L -95.27377319335938 -6.0299806594848615 L -95.32076263427734 -5.82900047302246 L -95.49847412109375 -5.067739963531493 L -95.49887084960938 -5.067171096801757 L -95.58132934570312 -4.950315475463866 L -96.06956481933594 -4.2588157653808585 L -96.11327362060547 -4.230785369873046 L -96.32315826416016 -4.09600019454956 L -96.4480209350586 -4.015820026397704 L -96.45318603515625 -4.012803077697753 L -96.8875732421875 -3.7592730522155753 L -96.94380187988281 -3.726492166519164 L -97.59317016601562 -3.6178619861602774 L -97.597412109375 -3.617151737213134 L -97.79168701171875 -3.5846519470214835 L -97.9221420288086 -3.562928915023803 L -97.92219543457031 -3.562920331954955 L -97.98524475097656 -3.552421808242797 L -98.30400085449219 -3.6185996532440177 L -98.67281341552734 -3.6951701641082755 L -98.74395751953125 -3.709876060485839 L -98.74403381347656 -3.709892272949218 L -98.9972915649414 -3.7622432708740225 L -99.44682312011719 -4.066775321960448 L -99.489990234375 -4.09600019454956 L -99.82691955566406 -4.324135303497314 L -100.04025268554688 -4.6636691093444815 L -100.04034423828125 -4.663818836212157 L -100.04756927490234 -4.67531394958496 L -100.34638977050781 -5.152149200439452 L -100.39606475830078 -5.518892765045165 L -100.40247344970703 -5.566130638122558 L -100.40248107910156 -5.566178798675536 L -100.47787475585938 -6.121387004852293 L -100.34813690185547 -6.573000907897947 L -100.30797576904297 -6.712665081024168 L -100.20162963867188 -7.082544326782225 L -99.74419403076172 -7.657134532928465 L -99.6458511352539 -7.780651092529295 L -99.6458511352539 -7.78065252304077 L -99.55870056152344 -7.890110969543455 L -99.0408935546875 -8.19200038909912 L -98.87100219726562 -8.29104709625244 L -98.8705062866211 -8.291335105895994 L -98.64852142333984 -8.420755386352537 L -98.64712524414062 -8.421567916870115 L -98.64712524414062 -8.421568870544432 L -98.64684295654297 -8.42173385620117 L -98.63919067382812 -8.423014640808104 L -98.30400085449219 -8.484106063842772 L -97.68333435058594 -8.597227096557615 L -97.68109130859375 -8.596734046936033 L -97.55181884765625 -8.568311691284178 L -96.73368835449219 -8.388440132141112 L -96.73367309570312 -8.38843250274658 L -96.561279296875 -8.266279220581053 M -109.77796936035156 -7.249749183654783 L -109.65816497802734 -6.769516468048094 L -109.5351333618164 -6.279164314270018 L -109.59223175048828 -5.944950103759765 L -109.59223937988281 -5.9449424743652335 L -109.59639739990234 -5.920571327209472 L -109.70045471191406 -5.315743923187255 L -109.70049285888672 -5.315492630004882 L -109.8980484008789 -5.024220943450927 L -109.90447998046875 -5.014722347259521 L -109.90450286865234 -5.014697551727294 L -110.24905395507812 -4.506351470947265 L -110.59200286865234 -4.291120052337646 L -110.63568878173828 -4.263701915740966 L -110.65534973144531 -4.251362323760985 L -110.90252685546875 -4.09600019454956 L -111.09700775146484 -3.9737606048583975 L -111.79283142089844 -3.8543927669525138 L -112.11589813232422 -3.7990033626556388 L -113.04520416259766 -3.9879276752471915 L -113.14996337890625 -4.009281158447265 L -113.28752136230469 -4.09600019454956 L -113.63573455810547 -4.315512180328368 L -113.63690948486328 -4.316328525543212 L -114.00578308105469 -4.571467399597167 L -114.03673553466797 -4.618697643280028 L -114.5475845336914 -5.400214195251464 L -114.5477066040039 -5.400406837463378 L -114.57833099365234 -5.555622100830077 L -114.68800354003906 -6.109971046447752 L -114.73936462402344 -6.369616985321043 L -114.69542694091797 -6.592741966247557 L -114.68800354003906 -6.630364418029783 L -114.54948425292969 -7.33230400085449 L -114.5494155883789 -7.3326492309570295 L -114.40355682373047 -7.550700187683104 L -114.008056640625 -8.142639160156248 L -113.93312072753906 -8.19200038909912 L -113.78929901123047 -8.286740303039549 L -113.1982650756836 -8.67563724517822 L -113.19783020019531 -8.67592144012451 L -112.97937774658203 -8.71585941314697 L -112.27922821044922 -8.84451389312744 L -112.27788543701172 -8.844760894775389 L -112.24128723144531 -8.851486206054686 L -112.24125671386719 -8.851490974426268 L -112.10874938964844 -8.822558403015135 L -111.2917709350586 -8.644249916076658 L -111.28517150878906 -8.642908096313475 L -111.28417205810547 -8.642704010009764 L -110.59200286865234 -8.20581531524658 L -110.57011413574219 -8.19200038909912 L -110.53014373779297 -8.166772842407225 L -110.392333984375 -8.079739570617674 L -110.23294830322266 -7.864503860473631 L -110.23229217529297 -7.86362314224243 L -109.98112487792969 -7.524453639984129 L -109.77900695800781 -7.251144409179686 L -109.77796936035156 -7.249749183654783 M -130.42950439453125 -6.9993033409118635 L -130.42935180664062 -6.99838876724243 L -130.391357421875 -6.76260995864868 L -130.27377319335938 -6.0299806594848615 L -130.32077026367188 -5.82900047302246 L -130.49847412109375 -5.067739963531493 L -130.49887084960938 -5.067171096801757 L -130.58132934570312 -4.950315475463866 L -131.06956481933594 -4.2588157653808585 L -131.07200622558594 -4.257253646850585 L -131.11328125 -4.230785369873046 L -131.3231658935547 -4.09600019454956 L -131.44801330566406 -4.015820026397704 L -131.45318603515625 -4.012803077697753 L -131.8875732421875 -3.7592730522155753 L -131.9438018798828 -3.726492166519164 L -132.59317016601562 -3.6178619861602774 L -132.597412109375 -3.617151737213134 L -132.79168701171875 -3.5846519470214835 L -132.92214965820312 -3.562928915023803 L -132.9221954345703 -3.562920331954955 L -132.92755126953125 -3.5620293617248526 L -132.9280548095703 -3.5619442462921134 L -132.98524475097656 -3.552421808242797 L -133.67282104492188 -3.6951701641082755 L -133.74395751953125 -3.709876060485839 L -133.74403381347656 -3.709892272949218 L -133.99728393554688 -3.7622432708740225 L -134.4468231201172 -4.066775321960448 L -134.489990234375 -4.09600019454956 L -134.82691955566406 -4.324135303497314 L -135.04025268554688 -4.6636691093444815 L -135.04034423828125 -4.663818836212157 L -135.0475616455078 -4.67531394958496 L -135.16799926757812 -4.867490768432616 L -135.3463897705078 -5.152149200439452 L -135.39605712890625 -5.518892765045165 L -135.40248107910156 -5.566130638122558 L -135.40248107910156 -5.566178798675536 L -135.47787475585938 -6.121387004852293 L -135.34812927246094 -6.573000907897947 L -135.20162963867188 -7.082544326782225 L -135.16799926757812 -7.124783039093016 L -134.7441864013672 -7.657134532928465 L -134.64585876464844 -7.780651092529295 L -134.64585876464844 -7.78065252304077 L -134.55870056152344 -7.890110969543455 L -134.0408935546875 -8.19200038909912 L -133.6485137939453 -8.420755386352537 L -133.64712524414062 -8.421567916870115 L -133.64712524414062 -8.421568870544432 L -133.64683532714844 -8.42173385620117 L -133.63919067382812 -8.423014640808104 L -132.68333435058594 -8.597227096557615 L -132.68109130859375 -8.596734046936033 L -132.55181884765625 -8.568311691284178 L -131.7336883544922 -8.388440132141112 L -131.73367309570312 -8.38843250274658 L -131.561279296875 -8.266279220581053 L -131.45657348632812 -8.19200038909912 L -131.07200622558594 -7.919196605682371 L -130.9420623779297 -7.827024936676024 L -130.8140869140625 -7.620194435119627 L -130.42950439453125 -6.9993033409118635 M -147.2412567138672 -8.851490974426268 L -147.10874938964844 -8.822558403015135 L -146.29177856445312 -8.644249916076658 L -146.28517150878906 -8.642908096313475 L -146.28416442871094 -8.642704010009764 L -145.5701141357422 -8.19200038909912 L -145.5301513671875 -8.166772842407225 L -145.392333984375 -8.079739570617674 L -145.23294067382812 -7.864503860473631 L -145.2322998046875 -7.86362314224243 L -144.9811248779297 -7.524453639984129 L -144.7790069580078 -7.251144409179686 L -144.77796936035156 -7.249749183654783 L -144.6581573486328 -6.769516468048094 L -144.53514099121094 -6.279164314270018 L -144.5922393798828 -5.944950103759765 L -144.5922393798828 -5.9449424743652335 L -144.59640502929688 -5.920571327209472 L -144.70045471191406 -5.315743923187255 L -144.70050048828125 -5.315492630004882 L -144.89804077148438 -5.024220943450927 L -144.90447998046875 -5.014722347259521 L -144.9044952392578 -5.014697551727294 L -145.24905395507812 -4.506351470947265 L -145.65237426757812 -4.253229618072509 L -145.6553497314453 -4.251362323760985 L -145.90252685546875 -4.09600019454956 L -146.09701538085938 -3.9737606048583975 L -146.79283142089844 -3.8543927669525138 L -147.1158905029297 -3.7990033626556388 L -147.45599365234375 -3.868144750595092 L -148.0452117919922 -3.9879276752471915 L -148.14996337890625 -4.009281158447265 L -148.2875213623047 -4.09600019454956 L -148.63572692871094 -4.315512180328368 L -148.6369171142578 -4.316328525543212 L -149.0057830810547 -4.571467399597167 L -149.03672790527344 -4.618697643280028 L -149.54757690429688 -5.400214195251464 L -149.54771423339844 -5.400406837463378 L -149.5783233642578 -5.555622100830077 L -149.73936462402344 -6.369616985321043 L -149.69541931152344 -6.592741966247557 L -149.5494842529297 -7.33230400085449 L -149.54940795898438 -7.3326492309570295 L -149.403564453125 -7.550700187683104 L -149.008056640625 -8.142639160156248 L -148.93312072753906 -8.19200038909912 L -148.789306640625 -8.286740303039549 L -148.19825744628906 -8.67563724517822 L -148.1978302001953 -8.67592144012451 L -147.9793701171875 -8.71585941314697 L -147.45599365234375 -8.812031745910643 L -147.27923583984375 -8.84451389312744 L -147.27789306640625 -8.844760894775389 L -147.2412872314453 -8.851486206054686 L -147.2412567138672 -8.851490974426268 M -53.19783020019531 -8.67592144012451 L -52.979373931884766 -8.71585941314697 L -52.27922821044922 -8.84451389312744 L -52.27788543701172 -8.844760894775389 L -52.24128723144531 -8.851486206054686 L -52.24126052856445 -8.851490974426268 L -52.10874938964844 -8.822558403015135 L -51.291770935058594 -8.644249916076658 L -51.28517150878906 -8.642908096313475 L -51.2841682434082 -8.642704010009764 L -50.57011413574219 -8.19200038909912 L -50.53014373779297 -8.166772842407225 L -50.392337799072266 -8.079739570617674 L -50.23294448852539 -7.864503860473631 L -50.23229217529297 -7.86362314224243 L -49.98112487792969 -7.524453639984129 L -49.77900314331055 -7.251144409179686 L -49.77797317504883 -7.249749183654783 L -49.658164978027344 -6.769516468048094 L -49.535133361816406 -6.279164314270018 L -49.5582275390625 -6.14400005340576 L -49.59640121459961 -5.920571327209472 L -49.7004508972168 -5.315743923187255 L -49.700496673583984 -5.315492630004882 L -49.89804458618164 -5.024220943450927 L -49.904483795166016 -5.014722347259521 L -49.90449905395508 -5.014697551727294 L -50.249053955078125 -4.506351470947265 L -50.652374267578125 -4.253229618072509 L -50.65534973144531 -4.251362323760985 L -50.902530670166016 -4.09600019454956 L -51.09701156616211 -3.9737606048583975 L -51.79283142089844 -3.8543927669525138 L -52.11589431762695 -3.7990033626556388 L -53.04520797729492 -3.9879276752471915 L -53.149959564208984 -4.009281158447265 L -53.24800109863281 -4.071085453033446 L -53.6357307434082 -4.315512180328368 L -53.63691329956055 -4.316328525543212 L -54.00578308105469 -4.571467399597167 L -54.0367317199707 -4.618697643280028 L -54.547584533691406 -5.400214195251464 L -54.54771041870117 -5.400406837463378 L -54.57832717895508 -5.555622100830077 L -54.7393684387207 -6.369616985321043 L -54.6954231262207 -6.592741966247557 L -54.54948043823242 -7.33230400085449 L -54.549415588378906 -7.3326492309570295 L -54.403560638427734 -7.550700187683104 L -54.008056640625 -8.142639160156248 L -53.93312454223633 -8.19200038909912 L -53.78929901123047 -8.286740303039549 L -53.24800109863281 -8.642910957336424 L -53.19826126098633 -8.67563724517822 L -53.19783020019531 -8.67592144012451 M -53.19783020019531 16.32407760620117 L -52.979373931884766 16.28414154052734 L -52.27922821044922 16.15548515319824 L -52.27788543701172 16.155239105224606 L -52.24128723144531 16.14851379394531 L -52.24126052856445 16.14850807189941 L -52.10874938964844 16.177440643310543 L -51.291770935058594 16.35574913024902 L -51.28517150878906 16.35709190368652 L -51.2841682434082 16.35729598999023 L -51.241859436035156 16.38400077819824 L -50.53014373779297 16.83322715759277 L -50.392337799072266 16.920261383056637 L -49.98112487792969 17.475545883178707 L -49.77900314331055 17.74885559082031 L -49.77797317504883 17.750249862670895 L -49.658164978027344 18.23048400878906 L -49.607601165771484 18.431999206542965 L -49.535133361816406 18.720836639404293 L -49.59223556518555 19.05504989624023 L -49.59223556518555 19.055057525634762 L -49.59640121459961 19.079427719116207 L -49.7004508972168 19.684255599975582 L -49.700496673583984 19.684507369995114 L -49.89804458618164 19.97577857971191 L -49.904483795166016 19.985277175903317 L -49.90449905395508 19.985301971435543 L -50.239803314208984 20.479999542236325 L -50.248600006103516 20.492979049682614 L -50.249053955078125 20.49364852905273 L -50.65534973144531 20.74863815307617 L -51.09701156616211 21.026239395141598 L -51.79283142089844 21.145606994628903 L -52.11589431762695 21.200996398925778 L -53.04520797729492 21.012071609497067 L -53.149959564208984 20.99071884155273 L -53.24800109863281 20.928915023803707 L -53.6357307434082 20.684488296508786 L -53.63691329956055 20.68367195129394 L -53.931373596191406 20.479999542236325 L -54.00578308105469 20.428533554077145 L -54.0367317199707 20.38130187988281 L -54.547584533691406 19.599786758422848 L -54.54771041870117 19.5995922088623 L -54.57832717895508 19.44437789916992 L -54.7393684387207 18.630382537841793 L -54.6954231262207 18.40725708007812 L -54.54948043823242 17.667695999145504 L -54.549415588378906 17.667350769042965 L -54.403560638427734 17.449300765991207 L -54.008056640625 16.857360839843746 L -53.78929901123047 16.713260650634762 L -53.28889846801758 16.38400077819824 L -53.19826126098633 16.324361801147457 L -53.19783020019531 16.32407760620117 M -65.49847412109375 -5.067739963531493 L -65.49887084960938 -5.067171096801757 L -65.53600311279297 -5.014554500579833 L -65.58132934570312 -4.950315475463866 L -66.06956481933594 -4.2588157653808585 L -66.11327362060547 -4.230785369873046 L -66.32315826416016 -4.09600019454956 L -66.4480209350586 -4.015820026397704 L -66.45318603515625 -4.012803077697753 L -66.8875732421875 -3.7592730522155753 L -66.94380187988281 -3.726492166519164 L -67.59317016601562 -3.6178619861602774 L -67.597412109375 -3.617151737213134 L -67.79168701171875 -3.5846519470214835 L -67.9221420288086 -3.562928915023803 L -67.92219543457031 -3.562920331954955 L -67.92754364013672 -3.5620293617248526 L -67.92805480957031 -3.5619442462921134 L -67.98524475097656 -3.552421808242797 L -68.67281341552734 -3.6951701641082755 L -68.74395751953125 -3.709876060485839 L -68.74403381347656 -3.709892272949218 L -68.9972915649414 -3.7622432708740225 L -69.44682312011719 -4.066775321960448 L -69.489990234375 -4.09600019454956 L -69.63200378417969 -4.192156314849853 L -69.82691955566406 -4.324135303497314 L -70.04025268554688 -4.6636691093444815 L -70.04034423828125 -4.663818836212157 L -70.04756927490234 -4.67531394958496 L -70.34638977050781 -5.152149200439452 L -70.39606475830078 -5.518892765045165 L -70.40247344970703 -5.566130638122558 L -70.40248107910156 -5.566178798675536 L -70.47787475585938 -6.121387004852293 L -70.34813690185547 -6.573000907897947 L -70.30797576904297 -6.712665081024168 L -70.20162963867188 -7.082544326782225 L -69.74419403076172 -7.657134532928465 L -69.63200378417969 -7.798049926757811 L -69.55870056152344 -7.890110969543455 L -69.0408935546875 -8.19200038909912 L -68.64852142333984 -8.420755386352537 L -68.64712524414062 -8.421567916870115 L -68.64712524414062 -8.421568870544432 L -68.64684295654297 -8.42173385620117 L -68.63919067382812 -8.423014640808104 L -67.68333435058594 -8.597227096557615 L -67.68109130859375 -8.596734046936033 L -67.55181884765625 -8.568311691284178 L -66.73368835449219 -8.388440132141112 L -66.73367309570312 -8.38843250274658 L -66.561279296875 -8.266279220581053 L -66.4565658569336 -8.19200038909912 L -65.94207000732422 -7.827024936676024 L -65.81409454345703 -7.620194435119627 L -65.53600311279297 -7.171241283416746 L -65.42949676513672 -6.9993033409118635 L -65.42935180664062 -6.99838876724243 L -65.39136505126953 -6.76260995864868 L -65.27377319335938 -6.0299806594848615 L -65.32076263427734 -5.82900047302246 L -65.49847412109375 -5.067739963531493 M -65.49847412109375 19.93226051330566 L -65.49887084960938 19.93282890319824 L -65.53600311279297 19.985445022583004 L -65.58132934570312 20.04968452453613 L -65.8851547241211 20.479999542236325 L -66.06956481933594 20.741184234619137 L -66.11327362060547 20.76921463012695 L -66.4480209350586 20.98418045043945 L -66.45318603515625 20.987195968627926 L -66.8875732421875 21.240726470947262 L -66.94380187988281 21.27350807189941 L -67.59317016601562 21.38213729858398 L -67.597412109375 21.38284873962402 L -67.79168701171875 21.415348052978512 L -67.9221420288086 21.437070846557614 L -67.92219543457031 21.437080383300778 L -67.92754364013672 21.4379711151123 L -67.92805480957031 21.438055038452145 L -67.98524475097656 21.447578430175778 L -68.67281341552734 21.304830551147457 L -68.74395751953125 21.290124893188473 L -68.74403381347656 21.290107727050778 L -68.9972915649414 21.237756729125973 L -69.44682312011719 20.933225631713864 L -69.4488296508789 20.93186569213867 L -69.4488525390625 20.93185234069824 L -69.63200378417969 20.8078441619873 L -69.82691955566406 20.67586517333984 L -69.94998168945312 20.479999542236325 L -70.04025268554688 20.336330413818356 L -70.04034423828125 20.336181640624996 L -70.04756927490234 20.324686050415036 L -70.34638977050781 19.847850799560543 L -70.39606475830078 19.48110771179199 L -70.40247344970703 19.433870315551754 L -70.40248107910156 19.4338207244873 L -70.47787475585938 18.878612518310543 L -70.34813690185547 18.42699813842773 L -70.30797576904297 18.28733444213867 L -70.20162963867188 17.91745567321777 L -69.74419403076172 17.34286499023437 L -69.63200378417969 17.201950073242184 L -69.55870056152344 17.109888076782223 L -68.64852142333984 16.579244613647457 L -68.64712524414062 16.57843208312988 L -68.64684295654297 16.578266143798825 L -68.63919067382812 16.576984405517575 L -67.68333435058594 16.40277290344238 L -67.68109130859375 16.403264999389645 L -67.55181884765625 16.431688308715817 L -66.73368835449219 16.611558914184567 L -66.73367309570312 16.611566543579098 L -66.561279296875 16.73372077941894 L -65.94207000732422 17.17297554016113 L -65.81409454345703 17.37980461120605 L -65.53600311279297 17.82875823974609 L -65.42949676513672 18.000696182250973 L -65.42935180664062 18.001611709594723 L -65.39136505126953 18.237390518188473 L -65.27377319335938 18.970018386840817 L -65.32076263427734 19.170999526977536 L -65.49847412109375 19.93226051330566 M 91.35287475585938 16.57843208312988 L 91.35287475585938 16.57843208312988 M 56.352874755859375 16.57843208312988 L 56.352874755859375 16.57843208312988 M -38.647125244140625 16.57843208312988 L -38.647125244140625 16.57843208312988 M -133.64712524414062 16.57843208312988 L -133.64712524414062 16.57843208312988 M -98.64712524414062 16.57843208312988 L -98.64712524414062 16.57843208312988 M -68.64712524414062 16.57843208312988 L -68.64712524414062 16.57843208312988 z" fill="none" stroke="rgb(255,0,0)" stroke-width="0.001mm" />
</svg>